<mxfile host="app.diagrams.net" modified="2020-10-21T10:52:23.052Z" agent="5.0 (Windows NT 10.0; Win64; x64) AppleWebKit/537.36 (KHTML, like Gecko) Chrome/86.0.4240.75 Safari/537.36" etag="yAVKpNcGHOxSQv62dDaW" version="13.8.1" type="github">
  <diagram id="C5RBs43oDa-KdzZeNtuy" name="Page-1">
    <mxGraphModel dx="1410" dy="794" grid="1" gridSize="10" guides="1" tooltips="1" connect="1" arrows="1" fold="1" page="1" pageScale="1" pageWidth="827" pageHeight="1169" math="0" shadow="0">
      <root>
        <mxCell id="WIyWlLk6GJQsqaUBKTNV-0" />
        <mxCell id="WIyWlLk6GJQsqaUBKTNV-1" parent="WIyWlLk6GJQsqaUBKTNV-0" />
        <mxCell id="nxLgZn3qPfFk9c5XjFaG-1" value="&lt;p style=&quot;margin: 0px ; margin-top: 4px ; margin-left: 5px ; text-align: left&quot;&gt;&lt;b&gt;cld System Płatności&lt;/b&gt;&lt;/p&gt;" style="html=1;shape=mxgraph.sysml.package;overflow=fill;labelX=137;align=left;spacingLeft=5;verticalAlign=top;spacingTop=-3;" vertex="1" parent="WIyWlLk6GJQsqaUBKTNV-1">
          <mxGeometry width="830" height="640" as="geometry" />
        </mxCell>
        <mxCell id="nxLgZn3qPfFk9c5XjFaG-6" value="Hurtownia" style="swimlane;fontStyle=1;align=center;verticalAlign=top;childLayout=stackLayout;horizontal=1;startSize=26;horizontalStack=0;resizeParent=1;resizeParentMax=0;resizeLast=0;collapsible=1;marginBottom=0;fillColor=#FFF7D6;" vertex="1" parent="WIyWlLk6GJQsqaUBKTNV-1">
          <mxGeometry x="40" y="60" width="160" height="90" as="geometry" />
        </mxCell>
        <mxCell id="nxLgZn3qPfFk9c5XjFaG-7" value="nazwa:&#xa;adres:" style="text;strokeColor=none;fillColor=none;align=left;verticalAlign=top;spacingLeft=4;spacingRight=4;overflow=hidden;rotatable=0;points=[[0,0.5],[1,0.5]];portConstraint=eastwest;fontColor=#FF0000;" vertex="1" parent="nxLgZn3qPfFk9c5XjFaG-6">
          <mxGeometry y="26" width="160" height="34" as="geometry" />
        </mxCell>
        <mxCell id="nxLgZn3qPfFk9c5XjFaG-8" value="" style="line;strokeWidth=1;fillColor=none;align=left;verticalAlign=middle;spacingTop=-1;spacingLeft=3;spacingRight=3;rotatable=0;labelPosition=right;points=[];portConstraint=eastwest;" vertex="1" parent="nxLgZn3qPfFk9c5XjFaG-6">
          <mxGeometry y="60" width="160" height="30" as="geometry" />
        </mxCell>
        <mxCell id="nxLgZn3qPfFk9c5XjFaG-10" value="Zamówienie" style="swimlane;fontStyle=1;align=center;verticalAlign=top;childLayout=stackLayout;horizontal=1;startSize=26;horizontalStack=0;resizeParent=1;resizeParentMax=0;resizeLast=0;collapsible=1;marginBottom=0;" vertex="1" parent="WIyWlLk6GJQsqaUBKTNV-1">
          <mxGeometry x="310" y="40" width="200" height="130" as="geometry" />
        </mxCell>
        <mxCell id="nxLgZn3qPfFk9c5XjFaG-11" value="dataZłożenia:" style="text;strokeColor=none;fillColor=none;align=left;verticalAlign=top;spacingLeft=4;spacingRight=4;overflow=hidden;rotatable=0;points=[[0,0.5],[1,0.5]];portConstraint=eastwest;fontColor=#FF0000;" vertex="1" parent="nxLgZn3qPfFk9c5XjFaG-10">
          <mxGeometry y="26" width="200" height="44" as="geometry" />
        </mxCell>
        <mxCell id="nxLgZn3qPfFk9c5XjFaG-12" value="" style="line;strokeWidth=1;fillColor=none;align=left;verticalAlign=middle;spacingTop=-1;spacingLeft=3;spacingRight=3;rotatable=0;labelPosition=right;points=[];portConstraint=eastwest;" vertex="1" parent="nxLgZn3qPfFk9c5XjFaG-10">
          <mxGeometry y="70" width="200" height="60" as="geometry" />
        </mxCell>
        <mxCell id="nxLgZn3qPfFk9c5XjFaG-18" value="Płatność" style="swimlane;fontStyle=1;align=center;verticalAlign=top;childLayout=stackLayout;horizontal=1;startSize=26;horizontalStack=0;resizeParent=1;resizeParentMax=0;resizeLast=0;collapsible=1;marginBottom=0;" vertex="1" parent="WIyWlLk6GJQsqaUBKTNV-1">
          <mxGeometry x="330" y="270" width="160" height="80" as="geometry" />
        </mxCell>
        <mxCell id="nxLgZn3qPfFk9c5XjFaG-19" value="suma:" style="text;strokeColor=none;fillColor=none;align=left;verticalAlign=top;spacingLeft=4;spacingRight=4;overflow=hidden;rotatable=0;points=[[0,0.5],[1,0.5]];portConstraint=eastwest;fontColor=#FF0000;" vertex="1" parent="nxLgZn3qPfFk9c5XjFaG-18">
          <mxGeometry y="26" width="160" height="26" as="geometry" />
        </mxCell>
        <mxCell id="nxLgZn3qPfFk9c5XjFaG-20" value="" style="line;strokeWidth=1;fillColor=none;align=left;verticalAlign=middle;spacingTop=-1;spacingLeft=3;spacingRight=3;rotatable=0;labelPosition=right;points=[];portConstraint=eastwest;" vertex="1" parent="nxLgZn3qPfFk9c5XjFaG-18">
          <mxGeometry y="52" width="160" height="28" as="geometry" />
        </mxCell>
        <mxCell id="nxLgZn3qPfFk9c5XjFaG-26" value="KartaPłatnicza" style="swimlane;fontStyle=1;align=center;verticalAlign=top;childLayout=stackLayout;horizontal=1;startSize=26;horizontalStack=0;resizeParent=1;resizeParentMax=0;resizeLast=0;collapsible=1;marginBottom=0;" vertex="1" parent="WIyWlLk6GJQsqaUBKTNV-1">
          <mxGeometry x="330" y="430" width="160" height="110" as="geometry" />
        </mxCell>
        <mxCell id="nxLgZn3qPfFk9c5XjFaG-27" value="typ:  = kredytowa&#xa;numer:&#xa;dataWażności:" style="text;strokeColor=none;fillColor=none;align=left;verticalAlign=top;spacingLeft=4;spacingRight=4;overflow=hidden;rotatable=0;points=[[0,0.5],[1,0.5]];portConstraint=eastwest;fontColor=#FF0000;" vertex="1" parent="nxLgZn3qPfFk9c5XjFaG-26">
          <mxGeometry y="26" width="160" height="54" as="geometry" />
        </mxCell>
        <mxCell id="nxLgZn3qPfFk9c5XjFaG-28" value="" style="line;strokeWidth=1;fillColor=none;align=left;verticalAlign=middle;spacingTop=-1;spacingLeft=3;spacingRight=3;rotatable=0;labelPosition=right;points=[];portConstraint=eastwest;" vertex="1" parent="nxLgZn3qPfFk9c5XjFaG-26">
          <mxGeometry y="80" width="160" height="8" as="geometry" />
        </mxCell>
        <mxCell id="nxLgZn3qPfFk9c5XjFaG-29" value="obciąż()" style="text;strokeColor=none;fillColor=none;align=left;verticalAlign=top;spacingLeft=4;spacingRight=4;overflow=hidden;rotatable=0;points=[[0,0.5],[1,0.5]];portConstraint=eastwest;" vertex="1" parent="nxLgZn3qPfFk9c5XjFaG-26">
          <mxGeometry y="88" width="160" height="22" as="geometry" />
        </mxCell>
        <mxCell id="nxLgZn3qPfFk9c5XjFaG-34" value="Należność" style="swimlane;fontStyle=1;align=center;verticalAlign=top;childLayout=stackLayout;horizontal=1;startSize=26;horizontalStack=0;resizeParent=1;resizeParentMax=0;resizeLast=0;collapsible=1;marginBottom=0;" vertex="1" parent="WIyWlLk6GJQsqaUBKTNV-1">
          <mxGeometry x="650" y="184" width="160" height="70" as="geometry" />
        </mxCell>
        <mxCell id="nxLgZn3qPfFk9c5XjFaG-35" value="terminPłatności:" style="text;strokeColor=none;fillColor=none;align=left;verticalAlign=top;spacingLeft=4;spacingRight=4;overflow=hidden;rotatable=0;points=[[0,0.5],[1,0.5]];portConstraint=eastwest;fontColor=#FF0000;" vertex="1" parent="nxLgZn3qPfFk9c5XjFaG-34">
          <mxGeometry y="26" width="160" height="26" as="geometry" />
        </mxCell>
        <mxCell id="nxLgZn3qPfFk9c5XjFaG-36" value="" style="line;strokeWidth=1;fillColor=none;align=left;verticalAlign=middle;spacingTop=-1;spacingLeft=3;spacingRight=3;rotatable=0;labelPosition=right;points=[];portConstraint=eastwest;" vertex="1" parent="nxLgZn3qPfFk9c5XjFaG-34">
          <mxGeometry y="52" width="160" height="18" as="geometry" />
        </mxCell>
        <mxCell id="nxLgZn3qPfFk9c5XjFaG-38" value="Wpływ" style="swimlane;fontStyle=1;align=center;verticalAlign=top;childLayout=stackLayout;horizontal=1;startSize=26;horizontalStack=0;resizeParent=1;resizeParentMax=0;resizeLast=0;collapsible=1;marginBottom=0;" vertex="1" parent="WIyWlLk6GJQsqaUBKTNV-1">
          <mxGeometry x="650" y="320" width="160" height="60" as="geometry" />
        </mxCell>
        <mxCell id="nxLgZn3qPfFk9c5XjFaG-40" value="" style="line;strokeWidth=1;fillColor=none;align=left;verticalAlign=middle;spacingTop=-1;spacingLeft=3;spacingRight=3;rotatable=0;labelPosition=right;points=[];portConstraint=eastwest;" vertex="1" parent="nxLgZn3qPfFk9c5XjFaG-38">
          <mxGeometry y="26" width="160" height="8" as="geometry" />
        </mxCell>
        <mxCell id="nxLgZn3qPfFk9c5XjFaG-41" value="zaksięguj()" style="text;strokeColor=none;fillColor=none;align=left;verticalAlign=top;spacingLeft=4;spacingRight=4;overflow=hidden;rotatable=0;points=[[0,0.5],[1,0.5]];portConstraint=eastwest;fontColor=#006600;" vertex="1" parent="nxLgZn3qPfFk9c5XjFaG-38">
          <mxGeometry y="34" width="160" height="26" as="geometry" />
        </mxCell>
        <mxCell id="nxLgZn3qPfFk9c5XjFaG-46" value="" style="endArrow=open;endFill=1;endSize=12;html=1;exitX=0.5;exitY=1;exitDx=0;exitDy=0;" edge="1" parent="WIyWlLk6GJQsqaUBKTNV-1" source="nxLgZn3qPfFk9c5XjFaG-10" target="nxLgZn3qPfFk9c5XjFaG-18">
          <mxGeometry width="160" relative="1" as="geometry">
            <mxPoint x="420" y="230" as="sourcePoint" />
            <mxPoint x="580" y="230" as="targetPoint" />
          </mxGeometry>
        </mxCell>
        <mxCell id="nxLgZn3qPfFk9c5XjFaG-60" value="podstawa&lt;br&gt;płatności" style="edgeLabel;html=1;align=center;verticalAlign=middle;resizable=0;points=[];" vertex="1" connectable="0" parent="nxLgZn3qPfFk9c5XjFaG-46">
          <mxGeometry x="-0.56" y="1" relative="1" as="geometry">
            <mxPoint x="-31" y="-8" as="offset" />
          </mxGeometry>
        </mxCell>
        <mxCell id="nxLgZn3qPfFk9c5XjFaG-61" value="1" style="edgeLabel;html=1;align=center;verticalAlign=middle;resizable=0;points=[];" vertex="1" connectable="0" parent="nxLgZn3qPfFk9c5XjFaG-46">
          <mxGeometry x="-0.44" relative="1" as="geometry">
            <mxPoint x="10" y="-18" as="offset" />
          </mxGeometry>
        </mxCell>
        <mxCell id="nxLgZn3qPfFk9c5XjFaG-62" value="1..*" style="edgeLabel;html=1;align=center;verticalAlign=middle;resizable=0;points=[];" vertex="1" connectable="0" parent="nxLgZn3qPfFk9c5XjFaG-46">
          <mxGeometry x="0.6" y="1" relative="1" as="geometry">
            <mxPoint x="19" as="offset" />
          </mxGeometry>
        </mxCell>
        <mxCell id="nxLgZn3qPfFk9c5XjFaG-48" value="" style="endArrow=block;endSize=16;endFill=0;html=1;exitX=0.5;exitY=0;exitDx=0;exitDy=0;entryX=0.25;entryY=1;entryDx=0;entryDy=0;" edge="1" parent="WIyWlLk6GJQsqaUBKTNV-1" source="nxLgZn3qPfFk9c5XjFaG-22" target="nxLgZn3qPfFk9c5XjFaG-18">
          <mxGeometry x="-1" y="-418" width="160" relative="1" as="geometry">
            <mxPoint x="100" y="380" as="sourcePoint" />
            <mxPoint x="260" y="380" as="targetPoint" />
            <mxPoint x="-280" y="-108" as="offset" />
          </mxGeometry>
        </mxCell>
        <mxCell id="nxLgZn3qPfFk9c5XjFaG-49" value="" style="endArrow=block;endSize=16;endFill=0;html=1;exitX=0.5;exitY=0;exitDx=0;exitDy=0;entryX=0.5;entryY=1;entryDx=0;entryDy=0;" edge="1" parent="WIyWlLk6GJQsqaUBKTNV-1" source="nxLgZn3qPfFk9c5XjFaG-26" target="nxLgZn3qPfFk9c5XjFaG-18">
          <mxGeometry x="-1" y="-418" width="160" relative="1" as="geometry">
            <mxPoint x="140" y="440" as="sourcePoint" />
            <mxPoint x="380" y="360" as="targetPoint" />
            <mxPoint x="-280" y="-108" as="offset" />
          </mxGeometry>
        </mxCell>
        <mxCell id="nxLgZn3qPfFk9c5XjFaG-50" value="" style="endArrow=block;endSize=16;endFill=0;html=1;exitX=0.25;exitY=0;exitDx=0;exitDy=0;entryX=0.75;entryY=1;entryDx=0;entryDy=0;" edge="1" parent="WIyWlLk6GJQsqaUBKTNV-1" source="nxLgZn3qPfFk9c5XjFaG-30" target="nxLgZn3qPfFk9c5XjFaG-18">
          <mxGeometry x="-1" y="-418" width="160" relative="1" as="geometry">
            <mxPoint x="150" y="450" as="sourcePoint" />
            <mxPoint x="390" y="370" as="targetPoint" />
            <mxPoint x="-280" y="-108" as="offset" />
          </mxGeometry>
        </mxCell>
        <mxCell id="nxLgZn3qPfFk9c5XjFaG-51" value="" style="endArrow=block;endSize=16;endFill=0;html=1;exitX=0;exitY=0.25;exitDx=0;exitDy=0;" edge="1" parent="WIyWlLk6GJQsqaUBKTNV-1" source="nxLgZn3qPfFk9c5XjFaG-38" target="nxLgZn3qPfFk9c5XjFaG-19">
          <mxGeometry x="-1" y="-418" width="160" relative="1" as="geometry">
            <mxPoint x="160" y="460" as="sourcePoint" />
            <mxPoint x="400" y="380" as="targetPoint" />
            <mxPoint x="-280" y="-108" as="offset" />
          </mxGeometry>
        </mxCell>
        <mxCell id="nxLgZn3qPfFk9c5XjFaG-52" value="" style="endArrow=block;endSize=16;endFill=0;html=1;exitX=0;exitY=0.5;exitDx=0;exitDy=0;entryX=1;entryY=0.25;entryDx=0;entryDy=0;" edge="1" parent="WIyWlLk6GJQsqaUBKTNV-1" source="nxLgZn3qPfFk9c5XjFaG-35" target="nxLgZn3qPfFk9c5XjFaG-18">
          <mxGeometry x="-1" y="-418" width="160" relative="1" as="geometry">
            <mxPoint x="170" y="470" as="sourcePoint" />
            <mxPoint x="410" y="390" as="targetPoint" />
            <mxPoint x="-280" y="-108" as="offset" />
          </mxGeometry>
        </mxCell>
        <mxCell id="nxLgZn3qPfFk9c5XjFaG-55" value="" style="endArrow=none;dashed=1;html=1;" edge="1" parent="WIyWlLk6GJQsqaUBKTNV-1">
          <mxGeometry width="50" height="50" relative="1" as="geometry">
            <mxPoint x="200" y="400" as="sourcePoint" />
            <mxPoint x="590" y="400" as="targetPoint" />
          </mxGeometry>
        </mxCell>
        <mxCell id="nxLgZn3qPfFk9c5XjFaG-56" value="rodzaj" style="edgeLabel;html=1;align=center;verticalAlign=middle;resizable=0;points=[];" vertex="1" connectable="0" parent="nxLgZn3qPfFk9c5XjFaG-55">
          <mxGeometry x="-0.8103" y="1" relative="1" as="geometry">
            <mxPoint y="-9" as="offset" />
          </mxGeometry>
        </mxCell>
        <mxCell id="nxLgZn3qPfFk9c5XjFaG-22" value="Gotówka" style="swimlane;fontStyle=1;align=center;verticalAlign=top;childLayout=stackLayout;horizontal=1;startSize=26;horizontalStack=0;resizeParent=1;resizeParentMax=0;resizeLast=0;collapsible=1;marginBottom=0;" vertex="1" parent="WIyWlLk6GJQsqaUBKTNV-1">
          <mxGeometry x="140" y="450" width="160" height="70" as="geometry" />
        </mxCell>
        <mxCell id="nxLgZn3qPfFk9c5XjFaG-23" value="kwotaPrzekazana:" style="text;strokeColor=none;fillColor=none;align=left;verticalAlign=top;spacingLeft=4;spacingRight=4;overflow=hidden;rotatable=0;points=[[0,0.5],[1,0.5]];portConstraint=eastwest;fontColor=#FF0000;" vertex="1" parent="nxLgZn3qPfFk9c5XjFaG-22">
          <mxGeometry y="26" width="160" height="26" as="geometry" />
        </mxCell>
        <mxCell id="nxLgZn3qPfFk9c5XjFaG-24" value="" style="line;strokeWidth=1;fillColor=none;align=left;verticalAlign=middle;spacingTop=-1;spacingLeft=3;spacingRight=3;rotatable=0;labelPosition=right;points=[];portConstraint=eastwest;" vertex="1" parent="nxLgZn3qPfFk9c5XjFaG-22">
          <mxGeometry y="52" width="160" height="18" as="geometry" />
        </mxCell>
        <mxCell id="nxLgZn3qPfFk9c5XjFaG-30" value="Przelew" style="swimlane;fontStyle=1;align=center;verticalAlign=top;childLayout=stackLayout;horizontal=1;startSize=26;horizontalStack=0;resizeParent=1;resizeParentMax=0;resizeLast=0;collapsible=1;marginBottom=0;" vertex="1" parent="WIyWlLk6GJQsqaUBKTNV-1">
          <mxGeometry x="530" y="450" width="160" height="88" as="geometry" />
        </mxCell>
        <mxCell id="nxLgZn3qPfFk9c5XjFaG-31" value="nazwaBanku:&#xa;nrKonta:" style="text;strokeColor=none;fillColor=none;align=left;verticalAlign=top;spacingLeft=4;spacingRight=4;overflow=hidden;rotatable=0;points=[[0,0.5],[1,0.5]];portConstraint=eastwest;fontColor=#FF0000;" vertex="1" parent="nxLgZn3qPfFk9c5XjFaG-30">
          <mxGeometry y="26" width="160" height="34" as="geometry" />
        </mxCell>
        <mxCell id="nxLgZn3qPfFk9c5XjFaG-32" value="" style="line;strokeWidth=1;fillColor=none;align=left;verticalAlign=middle;spacingTop=-1;spacingLeft=3;spacingRight=3;rotatable=0;labelPosition=right;points=[];portConstraint=eastwest;" vertex="1" parent="nxLgZn3qPfFk9c5XjFaG-30">
          <mxGeometry y="60" width="160" height="28" as="geometry" />
        </mxCell>
        <mxCell id="nxLgZn3qPfFk9c5XjFaG-58" value="" style="endArrow=none;dashed=1;html=1;" edge="1" parent="WIyWlLk6GJQsqaUBKTNV-1">
          <mxGeometry width="50" height="50" relative="1" as="geometry">
            <mxPoint x="570" y="210" as="sourcePoint" />
            <mxPoint x="570" y="370" as="targetPoint" />
            <Array as="points">
              <mxPoint x="570" y="270" />
            </Array>
          </mxGeometry>
        </mxCell>
        <mxCell id="nxLgZn3qPfFk9c5XjFaG-59" value="termin" style="edgeLabel;html=1;align=center;verticalAlign=middle;resizable=0;points=[];" vertex="1" connectable="0" parent="nxLgZn3qPfFk9c5XjFaG-58">
          <mxGeometry x="-0.25" y="-44" relative="1" as="geometry">
            <mxPoint x="24" y="-47" as="offset" />
          </mxGeometry>
        </mxCell>
        <mxCell id="nxLgZn3qPfFk9c5XjFaG-63" value="" style="endArrow=none;html=1;exitX=1;exitY=0.5;exitDx=0;exitDy=0;" edge="1" parent="WIyWlLk6GJQsqaUBKTNV-1" source="nxLgZn3qPfFk9c5XjFaG-7">
          <mxGeometry width="50" height="50" relative="1" as="geometry">
            <mxPoint x="260" y="150" as="sourcePoint" />
            <mxPoint x="310" y="100" as="targetPoint" />
          </mxGeometry>
        </mxCell>
        <mxCell id="nxLgZn3qPfFk9c5XjFaG-64" value="klient" style="edgeLabel;html=1;align=center;verticalAlign=middle;resizable=0;points=[];" vertex="1" connectable="0" parent="nxLgZn3qPfFk9c5XjFaG-63">
          <mxGeometry x="-0.7379" y="-1" relative="1" as="geometry">
            <mxPoint y="6.39" as="offset" />
          </mxGeometry>
        </mxCell>
        <mxCell id="nxLgZn3qPfFk9c5XjFaG-65" value="1" style="edgeLabel;html=1;align=center;verticalAlign=middle;resizable=0;points=[];" vertex="1" connectable="0" parent="nxLgZn3qPfFk9c5XjFaG-63">
          <mxGeometry x="-0.218" relative="1" as="geometry">
            <mxPoint x="-32.84" y="-11.83" as="offset" />
          </mxGeometry>
        </mxCell>
        <mxCell id="nxLgZn3qPfFk9c5XjFaG-66" value="1..*" style="edgeLabel;html=1;align=center;verticalAlign=middle;resizable=0;points=[];" vertex="1" connectable="0" parent="nxLgZn3qPfFk9c5XjFaG-63">
          <mxGeometry x="0.8753" relative="1" as="geometry">
            <mxPoint x="-3.39" y="-10.18" as="offset" />
          </mxGeometry>
        </mxCell>
      </root>
    </mxGraphModel>
  </diagram>
</mxfile>
